<svg xmlns="http://www.w3.org/2000/svg" xml:space="preserve" viewBox="0 0 208.2 268.9">
  <path fill="none" stroke="currentColor" stroke-dasharray="0 5 3 2 1 2 0 2 3 2 1 2 3 2 3 2 0 2 3 2 1 2 3 2 0 2 3 2 3 2 3 2 1 2 0 2 3 2 1 2 1 2 1 2 0 2 1 2 1 2 0 2 3 2 1 2 0 2 3 2 3 2 1 2 0 2 0 2 3 2 1 2 3 2 0 2 1 2 3 2 0 2 3 2 0 2 1 2 0 2 3 2 1 2 1 2 0 2 1 2 3 2 1 2 0 2 1 2 3 2 0 2 1 2 3 2 1 2 1 2 0 2 1 2 1 2 1 2 0 2 3 2 1 2 3 2 0 2 3 2 3 2 3 2 0 2 1 2 3 2 1 2 1 2 0 2 1 0 1" stroke-width=".8" d="M101.7 43.4a70 70 0 0 1 36.9 9.1c17.8 10 24.5 31.3 23.7 50.6.1 7.7-4.2 16.6 4.7 20.5 1.8 7.6-1.1 15.4-2.5 22.8-1.5 8-3.9 15.7-10.2 20.5-3.4 10.2-6 21.1-13.7 29a48 48 0 0 1-37.8 19.9 53.4 53.4 0 0 1-44.5-36c-2.3-7.7-3.7-15-10.6-19-3.2-11.5-7-23.2-7-35.2 2.4-5 9-7.4 5.7-14.4-2.1-19 1.3-40.5 16.3-53.7a64.9 64.9 0 0 1 39-14"/>
  <path fill="none" stroke="currentColor" d="M153.8 200c1.3 2.6.2 5.6.3 8.4-.2 8 .3 16.2 3 23.7 2.4 6.8 9.6 9.8 15.5 13.2 9 4.7 18.3 8.7 27.6 12.8 2.3 1 4.8 2 7.4 2M54.4 200c-1.4 3.2 0 6.6-.2 10 0 7.4-.6 15-3 22.2-2.2 6-8.5 9-13.7 12-9.1 5.1-18.8 9.2-28.3 13.5a24.3 24.3 0 0 1-8.6 2.5m100.7-232a58.1 58.1 0 0 1 14.4.9l3.3.6 5.1 1.1a68 68 0 0 1 26.7 12.4 39 39 0 0 1 5.5 5 70 70 0 0 1 4.2 5.1 62.8 62.8 0 0 1 9.2 19.2 58 58 0 0 1 1.5 6.9l.6 4.6c.3 1.6.4 3 .5 4.5.1 2.3.3 4.3.3 6.6l-.2 8.7a58 58 0 0 1-.5 5.6c-.3 2.2-.7 4.2-.7 6.3 0 2.3 1.8 2.1 3.7 3.1a6.6 6.6 0 0 1 3.2 3.8 15.4 15.4 0 0 1 .6 7l-.4 3.6-.4 2.8-.6 3.6-1.8 8.4-.8 2.8-1 4-1 3.6c-.7 2.6-1 5.1-2.1 7.6a7.1 7.1 0 0 1-3 3.7c-1.5.7-3 .7-3.8 2.3-1 1.8-1.4 4.6-2 6.7a99 99 0 0 1-3.9 10.2l-1.6 3.8c-.8 2.2-1.1 4.3-2.4 6.4-.6 1-1.3 1.5-1.8 2a14.2 14.2 0 0 0-2.1 2.5c-3 4.4-6.5 9-10.4 12.5a48 48 0 0 1-5.8 4.4 83 83 0 0 1-7.2 4.2 53.4 53.4 0 0 1-6.8 3 96 96 0 0 1-6.6 2.3 30 30 0 0 1-6.6 1 42 42 0 0 1-4 0 25.4 25.4 0 0 1-3.9-.4 52.3 52.3 0 0 1-11.2-3.2 65.7 65.7 0 0 1-16.7-9.4 48 48 0 0 1-4-3.8 76.3 76.3 0 0 1-8-9.6 20.2 20.2 0 0 0-2.5-3.1c-.5-.5-1.2-1-1.8-2l-.9-2c-.4-1.4-.7-2.7-1.4-4.3l-3.2-7.4a116 116 0 0 1-3.7-11.2c-.3-1.2-.5-2.5-1.5-3.4-1-.9-2.2-1-3.2-1.6a7.3 7.3 0 0 1-2.9-3.4c-1-2-1.3-4.4-1.9-6.6l-1.2-4.5c-1.1-4.1-2-8.3-3-12.5l-.5-2.5-.6-2.8a34 34 0 0 1-.4-3c-.2-1.8-.6-3.5-.7-5.4-.1-2.6 0-5.6 1.3-7.8a7.5 7.5 0 0 1 3.7-2.8c1-.4 2-.7 2.4-2 .5-1.7 0-3.3-.2-5.1l-.5-4.4c-.3-2.3-.4-4.4-.4-6.8 0-3.3-.2-6.7 0-10 0-1.4.3-2.8.4-4.2l.5-3.9.6-3.5A70.4 70.4 0 0 1 40 68a54.6 54.6 0 0 1 21.6-28A73.2 73.2 0 0 1 86 30.3l3-.6 3.1-.4 3.8-.6 5.3-.5"/>
  <rect width="98.5%" height="98.5%" x=".75%" y=".75%" fill="none" stroke="currentColor" rx="2.5%" ry="2.5%"/>
</svg>
